<?xml version="1.0" standalone="no"?>
<!DOCTYPE svg PUBLIC "-//W3C//DTD SVG 20010904//EN"
 "http://www.w3.org/TR/2001/REC-SVG-20010904/DTD/svg10.dtd">
<svg version="1.0" xmlns="http://www.w3.org/2000/svg"
 width="1024.000000pt" height="1024.000000pt" viewBox="0 0 1024.000000 1024.000000"
 preserveAspectRatio="xMidYMid meet">

<g transform="translate(0.000000,1024.000000) scale(0.100000,-0.100000)"
fill="#000000" stroke="none">
<path d="M5116 9599 c-45 -28 -136 -96 -421 -310 -163 -124 -376 -283 -399
-299 -11 -8 -110 -82 -220 -165 -109 -82 -210 -159 -225 -170 -75 -54 -228
-171 -239 -182 -8 -7 -35 -27 -60 -45 -26 -18 -94 -68 -152 -112 -58 -45 -109
-84 -115 -88 -5 -4 -23 -18 -40 -32 -29 -23 -167 -127 -389 -294 -61 -46 -121
-92 -134 -103 -12 -10 -93 -72 -180 -136 -86 -64 -159 -119 -162 -122 -3 -3
-27 -22 -55 -40 -27 -19 -52 -37 -55 -40 -3 -4 -41 -33 -85 -66 -223 -168
-337 -284 -461 -471 -59 -89 -144 -247 -144 -268 0 -6 -6 -22 -13 -36 -7 -14
-21 -52 -31 -85 -10 -33 -22 -71 -26 -85 -5 -14 -12 -47 -16 -75 -4 -27 -12
-61 -18 -75 -8 -18 -12 -408 -16 -1350 l-5 -1325 -40 1 c-22 0 -94 13 -160 28
-115 27 -168 37 -355 72 -225 42 -261 43 -290 12 -11 -12 -20 -32 -20 -44 0
-20 30 -151 60 -264 5 -19 19 -75 30 -125 12 -49 25 -98 31 -107 5 -10 9 -25
9 -34 0 -38 136 -455 186 -571 8 -17 14 -35 14 -39 0 -4 9 -26 19 -48 11 -23
38 -81 61 -131 75 -162 84 -179 134 -270 44 -80 173 -281 242 -375 98 -135
371 -422 510 -535 150 -124 353 -266 464 -326 25 -13 47 -26 50 -29 8 -8 66
-38 165 -87 158 -78 235 -111 350 -153 50 -17 99 -36 110 -40 26 -10 96 -33
170 -55 33 -9 71 -21 85 -26 14 -5 45 -13 70 -19 25 -6 72 -18 105 -26 33 -9
78 -19 100 -23 22 -4 85 -18 141 -30 99 -21 129 -26 344 -57 733 -105 1819
-92 2530 30 144 25 253 45 295 56 22 5 69 16 105 24 36 8 88 21 115 29 88 26
355 112 390 126 11 5 40 17 65 26 53 21 107 43 135 55 11 5 43 19 70 31 193
84 541 288 690 406 17 13 35 27 40 31 203 150 380 331 571 582 69 91 172 248
197 300 4 8 19 35 33 60 82 144 254 515 254 549 0 6 4 19 10 29 24 43 150 454
190 622 11 47 25 101 30 120 57 213 71 286 60 315 -16 42 -49 50 -143 37 -169
-24 -506 -89 -679 -131 -20 -5 -39 -6 -42 -3 -4 3 -6 575 -6 1271 -1 728 -5
1296 -10 1336 -21 152 -47 267 -81 355 -11 30 -23 64 -26 74 -24 79 -149 296
-231 401 -68 86 -222 239 -322 320 -78 63 -420 322 -449 340 -9 6 -30 21 -47
35 -17 14 -41 32 -54 40 -12 8 -54 39 -94 68 -151 114 -265 198 -356 266 -52
38 -164 122 -249 185 -85 64 -227 169 -315 235 -89 65 -190 142 -226 170 -36
29 -123 94 -195 146 -123 90 -499 369 -520 388 -6 4 -46 35 -90 67 -44 32
-141 103 -215 158 -74 55 -150 112 -169 125 -23 18 -51 27 -85 29 -44 3 -58
-1 -100 -28z m137 -261 c23 -18 44 -36 47 -39 3 -3 75 -57 160 -119 85 -63
176 -131 203 -153 43 -35 125 -96 215 -159 18 -13 39 -28 45 -34 7 -6 75 -57
152 -114 229 -169 290 -214 295 -220 3 -3 28 -21 55 -40 28 -19 60 -44 73 -55
13 -11 43 -33 67 -50 39 -27 226 -168 250 -187 6 -5 42 -32 81 -61 174 -128
886 -662 923 -693 9 -7 52 -41 96 -74 44 -34 123 -93 175 -133 122 -93 233
-204 327 -327 55 -71 193 -321 193 -347 0 -7 4 -21 9 -31 21 -37 62 -200 81
-317 7 -42 10 -157 8 -285 -3 -196 -5 -215 -21 -218 -15 -3 -70 33 -211 138
-19 14 -44 32 -56 40 -12 8 -37 26 -56 40 -54 40 -398 288 -441 318 -240 167
-355 248 -697 492 -73 52 -143 102 -156 110 -54 37 -191 137 -252 186 -38 30
-101 80 -140 111 -40 32 -75 60 -78 63 -3 3 -39 32 -80 64 -41 33 -93 76 -115
95 -22 20 -63 55 -90 78 -168 140 -215 180 -255 217 -25 23 -74 68 -110 101
-36 32 -108 97 -160 144 -52 47 -131 120 -176 161 -44 41 -133 122 -198 180
-65 58 -124 110 -130 115 -77 72 -123 61 -253 -61 -150 -142 -303 -285 -342
-320 -25 -21 -72 -64 -106 -94 -33 -30 -96 -86 -140 -125 -44 -38 -107 -95
-140 -125 -34 -30 -77 -68 -96 -84 -18 -16 -50 -43 -69 -60 -20 -17 -56 -47
-80 -66 -24 -19 -74 -60 -110 -90 -56 -48 -195 -160 -225 -183 -5 -4 -59 -47
-120 -95 -119 -95 -429 -323 -565 -417 -47 -32 -132 -93 -190 -135 -59 -43
-144 -104 -190 -136 -47 -32 -130 -91 -185 -131 -55 -39 -115 -82 -133 -95
-17 -13 -40 -29 -50 -36 -53 -38 -467 -339 -520 -378 -35 -25 -66 -43 -70 -39
-11 10 -3 514 8 535 5 10 10 31 10 46 0 29 26 146 40 179 4 11 16 43 25 70 78
225 251 467 450 631 33 27 62 51 65 54 5 5 67 51 183 137 24 18 53 41 65 50
23 19 38 30 217 165 61 45 115 86 120 90 6 5 28 22 50 38 22 16 45 34 51 39 7
5 83 62 170 127 88 65 161 121 164 124 3 4 41 33 85 65 44 33 94 71 111 85 17
14 44 34 59 45 48 35 419 313 431 323 6 6 67 52 136 103 68 52 189 144 267
204 79 61 151 115 160 120 14 9 62 44 111 82 111 86 210 161 230 175 14 10 84
62 155 117 72 55 134 100 138 100 5 1 27 -14 50 -31z m174 -1423 c114 -111
228 -219 252 -240 24 -22 81 -74 126 -115 45 -41 108 -97 140 -125 32 -27 82
-70 110 -95 29 -25 74 -63 100 -85 26 -22 66 -56 89 -76 41 -37 93 -77 236
-187 41 -31 80 -61 85 -67 6 -6 37 -31 70 -56 33 -24 62 -47 65 -50 6 -6 130
-100 240 -180 41 -31 109 -80 150 -111 41 -30 89 -63 105 -74 17 -10 32 -21
35 -24 3 -3 39 -27 80 -55 41 -27 79 -54 85 -58 10 -8 160 -113 199 -139 24
-16 285 -207 300 -219 74 -60 112 -89 118 -89 4 0 14 -13 23 -30 13 -25 15
-176 15 -1260 0 -1163 -1 -1231 -17 -1236 -10 -3 -27 -10 -38 -14 -11 -5 -42
-18 -70 -30 -85 -36 -116 -51 -225 -105 -158 -78 -215 -109 -218 -117 -2 -5
-9 -8 -14 -8 -11 0 -207 -117 -218 -129 -3 -3 -39 -28 -80 -55 -143 -95 -280
-200 -407 -313 -67 -60 -75 -64 -105 -58 -18 4 -37 10 -43 14 -5 4 -37 16 -70
26 -33 11 -64 22 -70 26 -5 4 -26 10 -45 13 -19 4 -44 11 -55 16 -11 4 -38 13
-60 18 -22 6 -67 18 -100 27 -192 55 -377 85 -687 114 -114 11 -212 22 -218
26 -12 8 -13 270 0 335 18 94 30 140 38 157 66 134 103 204 112 213 3 3 22 26
42 51 l37 46 218 6 c120 3 236 10 258 16 22 5 76 17 120 27 44 10 85 21 90 25
6 4 27 10 48 14 20 4 40 11 43 16 3 5 13 9 22 9 22 0 132 56 204 103 78 51
257 229 304 302 22 33 41 62 44 65 13 13 108 200 140 275 50 118 66 160 86
225 9 30 21 64 25 75 4 11 11 36 15 55 3 19 9 40 13 45 4 6 15 46 25 90 10 44
23 92 28 106 5 15 10 48 11 74 2 40 -2 50 -27 72 -30 25 -30 25 -165 19 -75
-4 -163 -11 -196 -16 -33 -5 -98 -15 -145 -21 -47 -6 -103 -13 -125 -16 -22
-3 -44 -9 -50 -13 -5 -4 -28 -11 -50 -14 -65 -12 -195 -57 -295 -105 -51 -24
-134 -74 -138 -83 -2 -4 -8 -8 -14 -8 -6 0 -29 -15 -52 -32 -22 -18 -52 -42
-66 -53 -53 -41 -187 -185 -225 -241 -22 -32 -42 -61 -46 -64 -16 -13 -97
-168 -141 -270 -22 -50 -55 -148 -68 -200 -19 -75 -40 -172 -50 -221 -14 -77
-53 -179 -67 -179 -11 0 -13 92 -13 522 l1 521 128 131 c166 170 287 334 330
446 8 19 20 49 27 65 41 100 74 265 74 378 0 83 -25 270 -41 299 -5 10 -9 24
-9 32 0 16 -35 129 -51 166 -6 14 -17 39 -24 55 -36 83 -104 218 -144 285 -50
84 -220 320 -260 362 -14 14 -40 42 -58 60 -18 19 -44 40 -58 48 -26 14 -28
13 -88 -51 -89 -95 -178 -207 -233 -294 -10 -16 -21 -32 -24 -35 -38 -33 -240
-421 -240 -460 0 -5 -4 -18 -9 -28 -13 -24 -35 -102 -57 -197 -13 -59 -17
-121 -17 -240 1 -209 21 -299 106 -475 35 -73 89 -163 107 -180 3 -3 16 -18
29 -35 12 -16 87 -96 167 -176 l144 -145 0 -522 c0 -292 -4 -523 -9 -526 -12
-8 -27 13 -35 49 -18 78 -37 165 -47 215 -11 56 -26 110 -61 215 -52 154 -160
361 -252 480 -51 66 -218 230 -271 266 -27 19 -52 36 -55 39 -9 9 -44 28 -115
63 -259 127 -469 176 -849 197 -219 12 -221 11 -220 -85 0 -39 5 -90 12 -115
6 -25 17 -68 24 -97 7 -28 16 -55 21 -59 4 -4 7 -15 7 -24 0 -17 35 -139 50
-175 5 -11 11 -29 13 -40 7 -28 55 -154 72 -192 8 -17 15 -34 15 -38 0 -14 67
-142 120 -230 99 -165 309 -356 465 -424 28 -12 57 -25 65 -30 9 -5 31 -12 50
-16 19 -4 40 -10 45 -14 6 -4 46 -15 90 -25 44 -10 98 -22 120 -28 22 -5 150
-12 284 -15 l243 -6 43 -58 c24 -32 62 -98 85 -146 85 -176 90 -197 90 -420
l0 -189 -202 -17 c-232 -19 -413 -45 -583 -85 -22 -6 -65 -15 -95 -22 -30 -7
-64 -16 -75 -20 -11 -5 -37 -11 -59 -15 -21 -3 -46 -10 -55 -15 -9 -5 -41 -16
-71 -25 -57 -16 -103 -34 -178 -67 -42 -18 -45 -18 -70 -2 -15 10 -49 38 -77
63 -94 87 -170 148 -308 249 -253 185 -479 315 -827 473 -47 21 -95 44 -108
51 l-23 13 -3 1240 -2 1240 26 22 c84 71 242 189 394 293 190 132 260 181 331
232 44 31 85 62 92 68 7 5 15 10 18 10 8 0 89 63 93 73 2 4 8 7 14 7 6 0 22
10 37 23 15 12 40 31 55 42 46 33 299 225 321 243 11 10 49 40 85 67 36 28 67
52 70 55 3 3 39 32 80 65 41 33 107 87 147 120 39 33 93 78 121 100 69 57 155
131 227 195 34 30 90 80 125 110 35 30 101 89 145 130 124 115 298 277 378
352 40 37 77 66 84 65 7 -1 106 -92 220 -202z m-203 -1187 c19 -19 114 -161
180 -267 51 -83 136 -249 136 -266 0 -4 6 -21 14 -38 46 -108 81 -316 73 -441
-5 -90 -21 -176 -36 -206 -5 -9 -12 -30 -15 -47 -4 -18 -18 -55 -32 -83 -13
-27 -24 -52 -24 -55 0 -7 -63 -108 -81 -130 -10 -11 -38 -44 -63 -74 -25 -30
-46 -58 -46 -63 0 -4 -4 -8 -10 -8 -7 0 -10 158 -10 454 0 538 -2 566 -42 607
-32 31 -69 37 -111 18 -51 -23 -52 -27 -55 -571 -2 -280 -5 -508 -7 -508 -7 0
-83 84 -135 149 -55 69 -134 224 -161 318 -25 89 -35 274 -20 386 15 110 76
296 132 402 90 170 267 435 291 435 5 0 15 -6 22 -12z m-3093 -1071 c-1 -4 -1
-505 -1 -1113 l0 -1106 -32 7 c-18 4 -39 11 -48 16 -8 4 -35 13 -60 18 -107
24 -271 71 -287 84 -10 7 -13 194 -13 876 0 476 3 876 6 888 3 12 41 48 83 79
42 32 78 60 81 64 3 4 37 28 75 55 77 53 168 125 174 138 4 10 23 5 22 -6z
m6235 -43 c119 -80 295 -224 321 -263 l23 -34 0 -878 0 -878 -57 -17 c-32 -9
-77 -23 -101 -31 -23 -7 -51 -13 -62 -13 -10 0 -21 -4 -24 -9 -3 -5 -27 -12
-52 -16 -26 -4 -54 -10 -63 -14 -31 -16 -80 -29 -85 -23 -8 8 -7 2217 1 2225
10 11 11 10 99 -49z m-4778 -624 c88 -11 265 -55 372 -90 166 -55 371 -179
480 -290 55 -57 170 -208 170 -225 0 -3 10 -22 23 -43 34 -56 122 -281 113
-289 -5 -5 -13 1 -20 12 -15 26 -140 152 -191 192 -296 230 -356 274 -419 307
-60 32 -78 32 -110 2 -35 -32 -35 -87 0 -129 29 -34 175 -157 297 -249 158
-119 377 -335 377 -372 0 -8 -30 -9 -92 -5 -264 18 -446 72 -618 185 -67 44
-170 142 -214 204 -14 19 -29 40 -34 46 -25 29 -98 170 -150 289 -41 95 -124
350 -147 449 l-6 29 43 -6 c24 -3 80 -10 126 -17z m3392 8 c0 -10 -26 -99 -76
-258 -26 -83 -98 -254 -142 -340 -100 -192 -240 -346 -407 -447 -46 -27 -169
-74 -270 -102 -108 -31 -365 -52 -365 -31 0 17 242 255 336 330 315 252 367
299 378 344 9 35 -14 73 -49 82 -19 5 -46 -5 -108 -41 -73 -42 -288 -193 -335
-234 -9 -9 -47 -38 -82 -66 -36 -27 -89 -76 -119 -107 -30 -32 -60 -58 -67
-58 -24 0 59 213 124 320 12 19 25 42 29 50 3 8 9 17 12 20 3 3 22 25 42 50
165 203 371 333 679 428 19 6 78 18 130 28 52 9 122 22 155 29 80 17 135 18
135 3z m2560 -1507 c0 -15 -4 -41 -9 -57 -5 -16 -17 -63 -26 -104 -38 -166
-175 -602 -196 -625 -5 -5 -9 -16 -9 -25 -1 -8 -9 -33 -20 -55 -11 -22 -19
-43 -20 -47 -1 -18 -118 -263 -175 -366 -70 -127 -80 -144 -130 -222 -103
-159 -194 -271 -344 -420 -191 -190 -365 -330 -557 -447 -278 -170 -498 -271
-834 -383 -331 -110 -545 -157 -957 -211 -128 -16 -128 -16 -37 86 219 249
647 678 984 986 98 89 164 147 430 374 98 85 277 231 345 283 17 12 68 52 115
88 47 37 164 125 260 197 212 157 250 192 250 228 0 36 -22 52 -59 44 -25 -5
-179 -94 -441 -255 -244 -150 -701 -498 -944 -719 -338 -307 -797 -758 -954
-936 -134 -153 -241 -265 -254 -265 -5 0 -7 9 -3 19 3 11 10 43 15 73 39 215
91 411 145 543 7 17 23 55 35 85 181 449 523 879 980 1230 25 19 47 37 50 40
21 24 280 190 405 260 115 65 332 168 464 221 42 17 90 37 107 45 96 42 515
170 669 204 22 5 69 16 105 25 36 9 115 26 175 39 290 62 399 87 404 91 14 15
31 2 31 -24z m-8555 -1 c28 -6 75 -15 105 -20 73 -13 244 -50 395 -86 33 -8
90 -21 126 -30 37 -8 104 -26 150 -40 46 -14 104 -32 129 -39 133 -39 221 -69
370 -125 527 -198 1010 -499 1351 -839 311 -313 587 -734 722 -1106 23 -65 33
-95 72 -218 8 -26 15 -56 15 -66 0 -10 3 -21 8 -25 9 -10 31 -116 39 -188 9
-91 19 -99 -228 171 -114 124 -425 439 -575 581 -204 194 -484 447 -563 510
-25 19 -78 63 -119 98 -41 35 -100 82 -131 105 -31 22 -58 43 -61 47 -11 13
-407 290 -415 290 -2 0 -40 25 -85 55 -45 30 -83 55 -86 55 -2 0 -33 18 -69
40 -36 22 -67 40 -70 40 -2 0 -23 13 -47 29 -66 44 -156 91 -176 91 -27 0 -42
-20 -42 -55 0 -39 24 -63 152 -153 53 -37 140 -102 194 -144 55 -42 174 -134
266 -205 156 -121 479 -379 523 -420 11 -10 67 -58 125 -107 109 -93 126 -109
350 -316 232 -215 669 -660 757 -772 16 -19 47 -54 70 -79 29 -30 38 -45 28
-47 -20 -5 -292 28 -400 48 -119 22 -406 88 -480 110 -104 32 -233 72 -250 79
-11 5 -72 28 -135 51 -206 75 -531 245 -720 375 -341 234 -565 448 -763 725
-26 36 -50 70 -55 75 -69 88 -322 575 -322 618 0 7 -4 17 -8 22 -10 12 -94
236 -117 315 -9 30 -21 65 -25 77 -23 56 -92 330 -117 461 -7 38 -15 37 112
12z m4648 -950 c105 -11 230 -27 277 -36 47 -9 105 -20 130 -24 67 -13 264
-65 354 -94 43 -14 87 -26 97 -26 36 0 28 -19 -32 -83 -70 -75 -33 -66 -359
-87 -364 -24 -603 -93 -892 -258 -105 -60 -255 -180 -348 -279 -71 -75 -83
-89 -152 -179 -43 -57 -60 -83 -111 -179 -12 -22 -26 -43 -32 -47 -12 -9 -25
0 -25 19 0 8 -6 29 -14 46 -7 18 -24 57 -36 87 -12 30 -60 128 -106 218 -46
90 -84 167 -84 171 0 9 144 81 163 81 7 0 17 4 23 9 5 5 43 18 84 31 41 12 86
25 100 30 32 10 136 37 173 45 35 7 77 47 77 74 0 11 -14 34 -32 51 -31 31
-34 32 -93 26 -76 -7 -308 -65 -405 -101 -25 -9 -54 -19 -64 -22 -11 -4 -45
-19 -75 -34 -40 -20 -59 -25 -68 -17 -7 5 -45 56 -85 112 -83 116 -137 185
-187 238 -25 27 -30 39 -20 42 8 2 50 15 94 29 115 37 216 62 420 106 321 68
850 90 1228 51z m607 -519 c0 -6 -13 -30 -30 -54 -16 -25 -30 -48 -30 -53 0
-4 -6 -15 -14 -23 -34 -38 -131 -228 -190 -371 -26 -63 -51 -124 -57 -135 -13
-29 -55 -144 -77 -212 -33 -100 -76 -288 -101 -438 -17 -97 -42 -208 -52 -226
-9 -17 -25 -19 -182 -21 -301 -3 -762 -3 -774 0 -26 8 -56 170 -56 302 -1 167
48 316 164 502 120 193 272 339 490 473 45 27 240 123 279 137 70 25 140 45
200 58 85 18 308 50 348 50 21 0 44 5 52 10 19 12 30 13 30 1z"/>
<path d="M2345 9250 c3 -5 11 -10 16 -10 6 0 7 5 4 10 -3 6 -11 10 -16 10 -6
0 -7 -4 -4 -10z"/>
<path d="M2388 9233 c7 -3 16 -2 19 1 4 3 -2 6 -13 5 -11 0 -14 -3 -6 -6z"/>
<path d="M1625 9135 c-39 -32 -29 -32 15 0 19 14 30 25 24 25 -5 -1 -22 -12
-39 -25z"/>
<path d="M2105 9110 c181 -15 299 -64 409 -169 37 -36 72 -75 77 -86 5 -11 18
-35 29 -54 41 -67 80 -213 80 -300 0 -61 -30 -183 -62 -252 -46 -99 -190 -242
-280 -278 -13 -6 -17 -10 -9 -10 56 -3 246 174 294 273 48 99 70 202 64 301
-5 82 -45 239 -65 255 -4 3 -16 23 -27 44 -30 60 -98 130 -174 181 -38 25 -72
45 -76 45 -4 0 -21 7 -38 15 -54 24 -165 45 -235 43 l-67 -1 80 -7z"/>
<path d="M1963 9093 c9 -2 23 -2 30 0 6 3 -1 5 -18 5 -16 0 -22 -2 -12 -5z"/>
<path d="M1918 9083 c7 -3 16 -2 19 1 4 3 -2 6 -13 5 -11 0 -14 -3 -6 -6z"/>
<path d="M1547 9073 c-4 -3 -7 -11 -7 -17 0 -6 5 -5 12 2 6 6 9 14 7 17 -3 3
-9 2 -12 -2z"/>
<path d="M1840 9057 c-85 -45 -204 -148 -232 -201 -6 -12 15 7 47 42 62 67
121 113 195 149 25 12 38 22 30 23 -8 0 -26 -6 -40 -13z"/>
<path d="M2707 9000 c15 -16 29 -30 31 -30 2 0 -6 14 -18 30 -12 17 -26 30
-32 30 -5 0 3 -13 19 -30z"/>
<path d="M2740 8956 c0 -2 8 -10 18 -17 15 -13 16 -12 3 4 -13 16 -21 21 -21
13z"/>
<path d="M1435 8929 c-4 -6 -5 -12 -2 -15 2 -3 7 2 10 11 7 17 1 20 -8 4z"/>
<path d="M1381 8834 c0 -11 3 -14 6 -6 3 7 2 16 -1 19 -3 4 -6 -2 -5 -13z"/>
<path d="M1557 8778 c-9 -31 -2 -33 11 -3 6 14 8 25 3 25 -5 0 -11 -10 -14
-22z"/>
<path d="M1533 8725 c-3 -9 -3 -18 -1 -21 3 -3 8 4 11 16 6 23 -1 27 -10 5z"/>
<path d="M1511 8639 c-7 -30 -11 -70 -9 -89 4 -31 5 -30 6 11 1 25 7 60 13 77
6 17 9 37 7 43 -2 7 -10 -12 -17 -42z"/>
<path d="M2871 8654 c0 -11 3 -14 6 -6 3 7 2 16 -1 19 -3 4 -6 -2 -5 -13z"/>
<path d="M1501 8430 c-4 -122 124 -340 249 -423 45 -30 44 -18 -1 14 -119 84
-211 236 -239 399 -7 43 -7 43 -9 10z"/>
<path d="M1322 8370 c0 -14 2 -19 5 -12 2 6 2 18 0 25 -3 6 -5 1 -5 -13z"/>
<path d="M2806 8173 c-6 -14 -5 -15 5 -6 7 7 10 15 7 18 -3 3 -9 -2 -12 -12z"/>
<path d="M1490 8001 c0 -10 19 -25 25 -20 1 2 -3 10 -11 17 -8 7 -14 8 -14 3z"/>
<path d="M2655 7960 c-16 -16 -24 -30 -19 -30 9 0 32 23 48 48 12 20 1 13 -29
-18z"/>
<path d="M1829 7960 c82 -38 153 -50 277 -48 l119 1 -135 7 c-110 5 -149 11
-211 33 -89 32 -112 35 -50 7z"/>
<path d="M2275 7943 c-11 -3 -24 -9 -29 -14 -8 -7 45 3 79 16 15 5 -27 4 -50
-2z"/>
<path d="M1656 7845 c10 -8 24 -14 29 -14 6 0 1 6 -9 14 -11 8 -24 15 -30 15
-5 0 -1 -7 10 -15z"/>
<path d="M2440 7809 c-19 -11 -29 -19 -22 -19 6 0 29 9 49 20 21 11 31 19 23
19 -8 -1 -31 -10 -50 -20z"/>
<path d="M1878 7743 c6 -2 18 -2 25 0 6 3 1 5 -13 5 -14 0 -19 -2 -12 -5z"/>
<path d="M2278 7743 c7 -3 16 -2 19 1 4 3 -2 6 -13 5 -11 0 -14 -3 -6 -6z"/>
</g>
</svg>
